<svg xmlns="http://www.w3.org/2000/svg" xmlns:xlink="http://www.w3.org/1999/xlink" id="Group_64" data-name="Group 64" width="132.982" height="65.32" viewBox="0 0 132.982 65.32"><defs><clipPath id="clip-path"><rect id="Rectangle_24" data-name="Rectangle 24" width="132.982" height="65.32" fill="#fff"></rect></clipPath></defs><g id="Group_63" data-name="Group 63" clip-path="url(#clip-path)"><path id="Path_71" data-name="Path 71" d="M302.769,123.139a6.083,6.083,0,0,1-2.612,2.41c-2.7,1.563-5.348,3.2-8.024,4.8-.288.172-.737.482-.9.384-.443-.278-.059-.718.01-1.091a4.382,4.382,0,0,1,2.677-3.4c1.817-.842,3.509-1.948,5.284-2.888.872-.462.9-.871.183-1.518-1.131-1.021-2.19-2.121-3.315-3.149a1.645,1.645,0,0,1-.628-1.973c.391-1.175.743-1.279,1.593-.362,1.872,2.018,3.814,3.972,5.727,5.953Z" transform="translate(-169.787 -67.524)" fill="#fff"></path><path id="Path_72" data-name="Path 72" d="M124.508,49.466q-6.14,0-12.281,0c-2.686,0-2.616-.087-2.8-2.588-.174-2.358,1.019-2.532,2.89-2.514,7.909.075,15.819-.021,23.728.054,3.736.036,6.44-1.407,7.952-4.86a9.927,9.927,0,0,0-1.633-10.514,7.347,7.347,0,0,0-5.639-2.2c-5.065.027-10.13.018-15.195,0-6.647-.019-12.317-4.35-13.611-10.376-1.254-5.84,2.3-12.5,8.112-15.189A11.249,11.249,0,0,1,120.87.247c5.481.021,10.964.082,16.443-.034,1.963-.042,2.307.812,2.3,2.493-.01,1.644-.277,2.587-2.268,2.548-5.41-.106-10.823-.057-16.235-.028-4.96.026-8.2,3.494-8.227,8.733-.023,4.935,2.965,7.876,8.145,7.92,5.134.043,10.269-.008,15.4.016a14.018,14.018,0,0,1,13.579,13.773c-.03,7.283-6.427,13.765-13.635,13.794-3.955.016-7.909,0-11.864,0" transform="translate(-62.815 -0.123)" fill="#fff"></path><path id="Path_73" data-name="Path 73" d="M204.623.23c2.736.107,6.1-.345,9.386.273,9.675,1.817,15.432,7.935,17.616,17.237,2.251,9.587.238,18.359-6.719,25.621a19.474,19.474,0,0,1-14.372,6.069c-4.164.043-8.329.015-12.493,0-.316,0-.765-.016-.919-.21-.272-.342.16-.6.37-.842.92-1.039,1.9-2.03,2.78-3.1a2.481,2.481,0,0,1,2.175-.927c2.22.048,4.442.02,6.663.015,8.4-.021,14.265-4.163,16.931-12.141,2.117-6.333,1.945-12.614-1.3-18.552A15.313,15.313,0,0,0,210.886,5.22c-3.746-.085-7.5.027-11.243-.053-1.269-.027-1.673.332-1.653,1.629.071,4.857.032,9.717.021,14.575,0,.4.047.974-.178,1.154-.5.4-.814-.27-1.221-.459-2.685-1.246-3.664-3.212-3.444-6.27.312-4.35.116-8.74.063-13.112C193.209.918,193.909.161,195.7.21c2.775.076,5.552.02,8.919.02" transform="translate(-112.678 -0.099)" fill="#fff"></path><path id="Path_74" data-name="Path 74" d="M29.54.129q10.414,0,20.829.01c.53,0,1.276-.282,1.548.2.321.566-.486.871-.757,1.316-1.716,2.81-4.119,3.886-7.469,3.508-2.811-.317-5.694.061-8.53-.109-1.949-.117-2.562.362-2.544,2.448.109,13.052.062,26.105.04,39.159,0,.844.433,2-.647,2.42a5.479,5.479,0,0,1-4.061-.016c-.96-.391-.622-1.448-.623-2.242-.015-13.122-.048-26.245.032-39.367.011-1.859-.4-2.516-2.359-2.405-3.114.176-6.259-.132-9.366.1C12.909,5.353,10.761,4.7,9.1,2.5,8.53,1.747,7.065,1.11,7.319.453c.308-.8,1.721-.3,2.642-.3C16.487.112,23.013.129,29.54.129" transform="translate(-4.253 0)" fill="#fff"></path><path id="Path_75" data-name="Path 75" d="M.041,32.055q0-10.514.007-21.028c0-.461-.04-1.18.211-1.332.612-.373.871.434,1.3.7,2.919,1.829,3.72,4.378,3.643,7.855C4.952,29.63,5.061,41.015,5.155,52.4c.018,2.081-.719,2.6-2.652,2.6-1.893,0-2.531-.6-2.5-2.535.1-6.8.041-13.6.041-20.4" transform="translate(0 -5.599)" fill="#fff"></path><path id="Path_76" data-name="Path 76" d="M281.624,105.309c2-.37,2.275.344,1.653,2.125-1.983,5.686-3.824,11.421-5.728,17.134a3.5,3.5,0,0,1-4.479,1.873c-.618-.3-.447-.741-.289-1.218q3.139-9.458,6.262-18.922c.475-1.446,1.673-.874,2.581-.992" transform="translate(-159.056 -61.382)" fill="#fff"></path><path id="Path_77" data-name="Path 77" d="M98.225,136.452c0-1.178-.033-2.358.014-3.534.022-.556-.323-1.409.6-1.511.834-.092,1.81-.375,2.329.772a32.7,32.7,0,0,0,1.729,3.314c.473.789.578,1.835,1.521,2.317.4-.85.1-1.745.15-2.617.056-.9.015-1.8.014-2.7,0-.588.038-1.1.842-1.136.9-.04,1.01.481,1.006,1.185-.011,2.494.012,4.989-.014,7.483-.006.562.3,1.4-.632,1.493-.84.08-1.8.351-2.333-.781-.77-1.626-1.632-3.21-2.477-4.8-.149-.28-.233-.773-.636-.707-.587.1-.326.648-.332,1-.026,1.385-.021,2.772.006,4.157.014.712-.088,1.225-.992,1.174-.818-.046-.8-.576-.8-1.156.008-1.316,0-2.633,0-3.95" transform="translate(-57.287 -76.607)" fill="#fff"></path><path id="Path_78" data-name="Path 78" d="M210.861,136.547c0,1.107.052,2.218-.02,3.32-.039.6.446,1.523-.636,1.678-.956.137-1.881.185-2.41-1.019-.721-1.643-1.62-3.209-2.461-4.8-.147-.277-.216-.778-.612-.7-.432.088-.214.564-.217.862-.016,1.384.023,2.768,0,4.152-.011.629.289,1.471-.837,1.53s-.95-.745-.952-1.414c-.009-2.422-.023-4.844.011-7.266.007-.548-.318-1.389.639-1.475.849-.077,1.776-.311,2.3.821.76,1.628,1.638,3.2,2.492,4.783.209.387.247.945.841,1.031.036-.392.1-.784.1-1.176.01-1.384-.015-2.768,0-4.152.008-.582-.181-1.3.811-1.341,1.144-.045.925.773.936,1.425.02,1.245.006,2.491.006,3.737" transform="translate(-118.244 -76.628)" fill="#fff"></path><path id="Path_79" data-name="Path 79" d="M73.941,136.233c.017-3.324,1.543-5.143,4.33-5.164,2.833-.021,4.459,1.929,4.426,5.31-.032,3.256-1.65,5.181-4.368,5.2-2.81.016-4.407-1.928-4.389-5.343m2.1,0c-.014,1.79.4,2.907,1.342,3.25a2.083,2.083,0,0,0,2.61-.645,5.491,5.491,0,0,0-.053-5.162,1.959,1.959,0,0,0-2.432-.613c-1.4.586-1.43,1.9-1.467,3.169" transform="translate(-43.137 -76.467)" fill="#fff"></path><path id="Path_80" data-name="Path 80" d="M262.856,113.515c.69.025.629.471.511.877a4.153,4.153,0,0,1-1.8,2.871c-2.1,1.2-4.088,2.583-6.152,3.844-.812.5-.912.88-.122,1.5,1.139.9,2.2,1.9,3.331,2.8a1.461,1.461,0,0,1,.6,1.774c-.354,1.2-.684,1.723-1.817.564-1.4-1.432-2.938-2.726-4.422-4.074a2.049,2.049,0,0,1-.009-3.379c3.024-2.3,6.227-4.355,9.362-6.5a5.166,5.166,0,0,1,.513-.278" transform="translate(-147.075 -66.225)" fill="#fff"></path><path id="Path_81" data-name="Path 81" d="M233.393,138.552c-.3.778.668,2.128-.754,2.593-1.74.568-3.556.772-5.162-.449-1.66-1.262-2.2-4.861-1.128-7.134a4.7,4.7,0,0,1,5.639-2.357c.577.15,1.3.175,1.108,1.13s-.724.922-1.524.693a2.49,2.49,0,0,0-3.293,1.388,4.493,4.493,0,0,0,.349,4.544,2.087,2.087,0,0,0,2.072.66c.514-.041.654-.352.716-.827.127-.987-.287-1.346-1.25-1.389-.535-.024-.442-.594-.457-1-.02-.523.282-.662.753-.766,2.359-.523,2.932.005,2.932,2.909" transform="translate(-131.73 -76.435)" fill="#fff"></path><path id="Path_82" data-name="Path 82" d="M145.653,135.533c0,.831.03,1.664-.009,2.493a3.542,3.542,0,0,1-3.817,3.738c-2.284,0-3.634-1.361-3.7-3.816-.049-1.73-.007-3.463-.015-5.195,0-.72-.047-1.389,1.025-1.36s.966.753.97,1.439c.008,1.593,0,3.187.012,4.78.011,1.211.266,2.259,1.8,2.228s1.711-1.133,1.722-2.315c.014-1.524,0-3.048.011-4.572.006-.737-.192-1.587,1.053-1.555,1.294.033.9.966.938,1.641.047.829.011,1.662.009,2.493" transform="translate(-80.568 -76.655)" fill="#fff"></path><path id="Path_83" data-name="Path 83" d="M123.045,141.586a10.877,10.877,0,0,1-1.471-.386c-.779-.3-.662-1.032-.515-1.607.207-.814.75-.212,1.154-.145.477.078.949.212,1.428.245a1.066,1.066,0,0,0,1.218-.584,1.117,1.117,0,0,0-.54-1.422c-.632-.425-1.338-.747-1.94-1.208a3.052,3.052,0,0,1-.639-4.4,4.22,4.22,0,0,1,4.655-.488c.442.327.411.634.235,1.059s-.34.775-.881.652c-.471-.107-.933-.267-1.409-.334a.992.992,0,0,0-1.184.624,1.026,1.026,0,0,0,.462,1.264c.521.343,1.061.656,1.6.966a3.067,3.067,0,0,1,1.621,3.685c-.334,1.363-1.683,2.145-3.8,2.084" transform="translate(-70.564 -76.485)" fill="#fff"></path><path id="Path_84" data-name="Path 84" d="M59.894,131.1a14.818,14.818,0,0,1,1.5.3c.575.165.976.447.681,1.208-.252.649-.552.907-1.229.613-1.145-.5-2.249-.455-2.9.726a4.931,4.931,0,0,0-.051,4.792c.581,1.134,1.691.985,2.756.872.444-.047,1.12-.662,1.306.32.152.807-.185,1.236-1.026,1.479a4.041,4.041,0,0,1-5.332-2.9,7.051,7.051,0,0,1,.522-5.444,3.936,3.936,0,0,1,3.77-1.968" transform="translate(-32.257 -76.484)" fill="#fff"></path><path id="Path_85" data-name="Path 85" d="M179.1,137.515c0,.971-.017,1.942.005,2.912.016.693-.053,1.221-.969,1.209-.851-.012-1.043-.435-1.032-1.179.026-1.8-.02-3.606.018-5.409.022-1.064.005-1.992-1.476-1.807-.676.084-1.023-.218-1.011-.949.013-.79.492-.872,1.1-.867q2.5.018,4.993,0c.615,0,.877.274.85.881-.019.428-.027.964-.584.892-2.344-.307-1.881,1.329-1.9,2.648-.006.554,0,1.109,0,1.664" transform="translate(-101.88 -76.674)" fill="#fff"></path><path id="Path_86" data-name="Path 86" d="M160.386,136.626c0-1.382.025-2.764-.007-4.145-.02-.822.355-1.074,1.129-1.065s.895.445.892,1.069c-.01,1.866.078,3.736-.028,5.595-.077,1.348.339,1.835,1.723,1.758.71-.039,2.026-.651,2,.924-.025,1.412-1.216.817-1.9.833-3.811.089-3.812.06-3.812-3.726q0-.622,0-1.244" transform="translate(-93.566 -76.669)" fill="#fff"></path><path id="Path_87" data-name="Path 87" d="M195.562,136.407c0,1.384-.016,2.767.008,4.151.011.643-.116,1.058-.888,1.065s-1.146-.2-1.135-1.054c.035-2.7.027-5.4.007-8.094-.006-.807.338-1.081,1.126-1.072s.9.429.887,1.06c-.019,1.314-.006,2.629-.005,3.943" transform="translate(-112.916 -76.662)" fill="#fff"></path></g></svg>