<svg xmlns="http://www.w3.org/2000/svg" xmlns:xlink="http://www.w3.org/1999/xlink" width="160px" height="160px" viewBox="0 0 160 160"><g id="surface1"><path style=" stroke:none;fill-rule:evenodd;fill:rgb(0%,37.647059%,59.607843%);fill-opacity:1;" d="M 23.085938 49.808594 L 27.949219 54.445312 L 42.507812 54.445312 L 42.507812 94.820312 C 42.507812 96.039062 43.621094 95.933594 45 95.933594 C 46.375 95.933594 47.492188 96.039062 47.492188 94.820312 L 47.492188 54.445312 L 62.046875 54.445312 L 66.074219 49.808594 Z M 23.085938 49.808594 "></path><path style=" stroke:none;fill-rule:nonzero;fill:rgb(23.921569%,27.058824%,32.156863%);fill-opacity:1;" d="M 46.53125 102.582031 C 45.847656 102.582031 45.316406 102.867188 44.941406 103.4375 C 44.566406 104.011719 44.378906 104.808594 44.378906 105.828125 C 44.378906 107.953125 45.097656 109.015625 46.53125 109.015625 C 47.132812 109.015625 47.863281 108.847656 48.71875 108.515625 L 48.71875 110.207031 C 48.015625 110.535156 47.230469 110.699219 46.359375 110.699219 C 45.113281 110.699219 44.160156 110.277344 43.5 109.4375 C 42.835938 108.59375 42.507812 107.386719 42.507812 105.816406 C 42.507812 104.824219 42.667969 103.957031 42.992188 103.210938 C 43.316406 102.464844 43.785156 101.894531 44.394531 101.496094 C 45 101.097656 45.714844 100.902344 46.53125 100.902344 C 47.363281 100.902344 48.203125 101.125 49.042969 101.570312 L 48.457031 103.214844 C 48.132812 103.046875 47.8125 102.898438 47.488281 102.769531 C 47.164062 102.644531 46.84375 102.582031 46.53125 102.582031 Z M 46.53125 102.582031 "></path><path style=" stroke:none;fill-rule:nonzero;fill:rgb(23.921569%,27.058824%,32.156863%);fill-opacity:1;" d="M 57.902344 105.789062 C 57.902344 107.367188 57.550781 108.578125 56.847656 109.425781 C 56.140625 110.273438 55.132812 110.699219 53.820312 110.699219 C 52.503906 110.699219 51.496094 110.273438 50.792969 109.425781 C 50.085938 108.578125 49.734375 107.363281 49.734375 105.777344 C 49.734375 104.191406 50.089844 102.980469 50.792969 102.140625 C 51.5 101.304688 52.511719 100.886719 53.832031 100.886719 C 55.148438 100.886719 56.15625 101.308594 56.855469 102.152344 C 57.554688 102.996094 57.902344 104.207031 57.902344 105.789062 Z M 51.640625 105.789062 C 51.640625 106.855469 51.824219 107.65625 52.1875 108.195312 C 52.550781 108.734375 53.09375 109.003906 53.820312 109.003906 C 55.269531 109.003906 55.996094 107.929688 55.996094 105.789062 C 55.996094 103.640625 55.273438 102.570312 53.832031 102.570312 C 53.105469 102.570312 52.5625 102.839844 52.195312 103.378906 C 51.824219 103.921875 51.640625 104.722656 51.640625 105.789062 Z M 51.640625 105.789062 "></path><path style=" stroke:none;fill-rule:nonzero;fill:rgb(23.921569%,27.058824%,32.156863%);fill-opacity:1;" d="M 66.875 110.566406 L 64.566406 110.566406 L 60.835938 103.359375 L 60.78125 103.359375 C 60.855469 104.632812 60.894531 105.539062 60.894531 106.082031 L 60.894531 110.566406 L 59.269531 110.566406 L 59.269531 101.039062 L 61.5625 101.039062 L 65.289062 108.175781 L 65.328125 108.175781 C 65.269531 106.9375 65.242188 106.0625 65.242188 105.546875 L 65.242188 101.039062 L 66.875 101.039062 Z M 66.875 110.566406 "></path><path style=" stroke:none;fill-rule:nonzero;fill:rgb(23.921569%,27.058824%,32.156863%);fill-opacity:1;" d="M 73.722656 107.921875 C 73.722656 108.78125 73.445312 109.460938 72.886719 109.953125 C 72.328125 110.449219 71.554688 110.699219 70.558594 110.699219 C 69.644531 110.699219 68.835938 110.507812 68.132812 110.125 L 68.132812 108.246094 C 68.710938 108.535156 69.199219 108.734375 69.601562 108.851562 C 70.003906 108.96875 70.367188 109.027344 70.699219 109.027344 C 71.101562 109.027344 71.40625 108.945312 71.621094 108.773438 C 71.832031 108.605469 71.9375 108.351562 71.9375 108.019531 C 71.9375 107.832031 71.890625 107.664062 71.796875 107.519531 C 71.703125 107.375 71.566406 107.234375 71.382812 107.097656 C 71.203125 106.964844 70.832031 106.75 70.273438 106.453125 C 69.75 106.179688 69.355469 105.917969 69.09375 105.664062 C 68.832031 105.414062 68.621094 105.121094 68.464844 104.785156 C 68.308594 104.449219 68.230469 104.058594 68.230469 103.613281 C 68.230469 102.769531 68.488281 102.105469 69.003906 101.625 C 69.515625 101.140625 70.226562 100.902344 71.136719 100.902344 C 71.582031 100.902344 72.007812 100.960938 72.410156 101.078125 C 72.816406 101.195312 73.238281 101.359375 73.679688 101.570312 L 73.09375 103.144531 C 72.636719 102.933594 72.257812 102.789062 71.960938 102.707031 C 71.660156 102.625 71.367188 102.582031 71.078125 102.582031 C 70.730469 102.582031 70.46875 102.671875 70.285156 102.847656 C 70.101562 103.027344 70.007812 103.261719 70.007812 103.546875 C 70.007812 103.726562 70.046875 103.878906 70.121094 104.011719 C 70.195312 104.144531 70.3125 104.273438 70.476562 104.398438 C 70.636719 104.519531 71.023438 104.742188 71.628906 105.066406 C 72.429688 105.492188 72.980469 105.917969 73.277344 106.347656 C 73.574219 106.773438 73.722656 107.300781 73.722656 107.921875 Z M 73.722656 107.921875 "></path><path style=" stroke:none;fill-rule:nonzero;fill:rgb(23.921569%,27.058824%,32.156863%);fill-opacity:1;" d="M 81.847656 101.039062 L 81.847656 107.203125 C 81.847656 107.90625 81.707031 108.523438 81.421875 109.054688 C 81.140625 109.585938 80.730469 109.992188 80.195312 110.273438 C 79.65625 110.554688 79.023438 110.699219 78.292969 110.699219 C 77.191406 110.699219 76.332031 110.382812 75.722656 109.753906 C 75.113281 109.128906 74.808594 108.269531 74.808594 107.175781 L 74.808594 101.039062 L 76.621094 101.039062 L 76.621094 106.871094 C 76.621094 107.605469 76.753906 108.144531 77.019531 108.488281 C 77.285156 108.832031 77.726562 109.003906 78.339844 109.003906 C 78.933594 109.003906 79.367188 108.832031 79.632812 108.484375 C 79.902344 108.140625 80.035156 107.597656 80.035156 106.859375 L 80.035156 101.039062 Z M 81.847656 101.039062 "></path><path style=" stroke:none;fill-rule:nonzero;fill:rgb(23.921569%,27.058824%,32.156863%);fill-opacity:1;" d="M 83.539062 110.566406 L 83.539062 101.039062 L 85.355469 101.039062 L 85.355469 108.898438 L 88.835938 108.898438 L 88.835938 110.566406 Z M 83.539062 110.566406 "></path><path style=" stroke:none;fill-rule:nonzero;fill:rgb(23.921569%,27.058824%,32.156863%);fill-opacity:1;" d="M 93.234375 110.566406 L 91.414062 110.566406 L 91.414062 102.71875 L 89.085938 102.71875 L 89.085938 101.039062 L 95.5625 101.039062 L 95.5625 102.71875 L 93.234375 102.71875 Z M 93.234375 110.566406 "></path><path style=" stroke:none;fill-rule:nonzero;fill:rgb(23.921569%,27.058824%,32.156863%);fill-opacity:1;" d="M 96.492188 110.566406 L 96.492188 101.039062 L 98.3125 101.039062 L 98.3125 110.566406 Z M 96.492188 110.566406 "></path><path style=" stroke:none;fill-rule:nonzero;fill:rgb(23.921569%,27.058824%,32.156863%);fill-opacity:1;" d="M 107.667969 110.566406 L 105.355469 110.566406 L 101.625 103.359375 L 101.570312 103.359375 C 101.644531 104.632812 101.683594 105.539062 101.683594 106.082031 L 101.683594 110.566406 L 100.058594 110.566406 L 100.058594 101.039062 L 102.351562 101.039062 L 106.078125 108.175781 L 106.117188 108.175781 C 106.058594 106.9375 106.03125 106.0625 106.03125 105.546875 L 106.03125 101.039062 L 107.667969 101.039062 Z M 107.667969 110.566406 "></path><path style=" stroke:none;fill-rule:nonzero;fill:rgb(23.921569%,27.058824%,32.156863%);fill-opacity:1;" d="M 112.707031 105.214844 L 116.109375 105.214844 L 116.109375 110.15625 C 115.554688 110.355469 115.039062 110.496094 114.550781 110.578125 C 114.0625 110.65625 113.566406 110.699219 113.058594 110.699219 C 111.761719 110.699219 110.773438 110.273438 110.089844 109.429688 C 109.410156 108.585938 109.066406 107.371094 109.066406 105.789062 C 109.066406 104.25 109.464844 103.050781 110.257812 102.191406 C 111.046875 101.332031 112.144531 100.902344 113.550781 100.902344 C 114.429688 100.902344 115.277344 101.097656 116.097656 101.488281 L 115.492188 103.105469 C 114.867188 102.757812 114.214844 102.582031 113.539062 102.582031 C 112.753906 102.582031 112.121094 102.875 111.648438 103.460938 C 111.175781 104.050781 110.9375 104.835938 110.9375 105.828125 C 110.9375 106.863281 111.128906 107.652344 111.511719 108.199219 C 111.890625 108.742188 112.445312 109.015625 113.175781 109.015625 C 113.554688 109.015625 113.9375 108.972656 114.332031 108.886719 L 114.332031 106.898438 L 112.707031 106.898438 Z M 112.707031 105.214844 "></path><path style=" stroke:none;fill-rule:evenodd;fill:rgb(0%,37.647059%,59.607843%);fill-opacity:1;" d="M 20.898438 52.910156 L 20.898438 94.820312 C 20.902344 96.039062 21.964844 95.933594 23.277344 95.933594 C 24.589844 95.933594 25.652344 96.039062 25.652344 94.820312 L 25.652344 57.214844 Z M 20.898438 52.910156 "></path><path style=" stroke:none;fill-rule:evenodd;fill:rgb(0%,37.647059%,59.607843%);fill-opacity:1;" d="M 98.230469 49.808594 C 97.027344 49.808594 96.433594 50.277344 96.410156 51.476562 L 96.410156 68.074219 L 100.820312 71.203125 L 100.820312 54.445312 L 112.453125 54.445312 C 122.289062 54.445312 128.378906 62.5625 128.378906 72.382812 C 128.378906 82.207031 122.289062 91.183594 112.453125 91.183594 L 103.792969 91.183594 L 99.480469 95.9375 L 112.453125 95.9375 C 124.832031 95.9375 133.132812 84.742188 133.132812 72.382812 C 133.132812 60.023438 124.832031 49.808594 112.453125 49.808594 Z M 98.230469 49.808594 "></path><path style=" stroke:none;fill-rule:nonzero;fill:rgb(23.921569%,27.058824%,32.156863%);fill-opacity:1;" d="M 139.136719 94.484375 L 138.378906 96.800781 L 143.234375 101.449219 L 135.441406 105.792969 L 134.285156 109.324219 L 144.980469 102.882812 L 145.191406 100.726562 Z M 139.136719 94.484375 "></path><path style=" stroke:none;fill-rule:nonzero;fill:rgb(23.921569%,27.058824%,32.156863%);fill-opacity:1;" d="M 130.359375 93.296875 L 119.605469 100.691406 L 119.390625 102.847656 L 125.433594 108.363281 L 126.230469 105.917969 L 121.382812 101.789062 L 129.207031 96.816406 Z M 130.359375 93.296875 "></path><path style=" stroke:none;fill-rule:nonzero;fill:rgb(0%,37.647059%,59.607843%);fill-opacity:1;" d="M 134.285156 90.84375 L 137.277344 90.84375 C 137.628906 90.84375 137.824219 91.117188 137.714844 91.449219 L 131.542969 110.09375 C 131.433594 110.425781 131.058594 110.699219 130.707031 110.699219 L 127.710938 110.699219 C 127.359375 110.699219 127.164062 110.425781 127.277344 110.09375 L 133.445312 91.449219 C 133.558594 91.117188 133.933594 90.84375 134.285156 90.84375 Z M 134.285156 90.84375 "></path><path style=" stroke:none;fill-rule:evenodd;fill:rgb(0%,37.647059%,59.607843%);fill-opacity:1;" d="M 74.976562 49.808594 C 68.703125 49.847656 62.890625 56.335938 62.890625 62.597656 L 62.898438 62.597656 C 62.898438 62.648438 62.890625 62.699219 62.890625 62.75 C 62.890625 69.015625 68.710938 74.683594 74.984375 74.726562 L 90.511719 74.726562 C 94.90625 74.726562 97.734375 78.496094 97.734375 82.882812 C 97.734375 87.273438 94.90625 91.183594 90.511719 91.183594 L 65.695312 91.183594 C 64.472656 91.167969 64.574219 92.246094 64.574219 93.558594 C 64.574219 94.871094 64.472656 95.933594 65.695312 95.933594 L 90.519531 95.933594 C 96.792969 95.894531 102.601562 89.296875 102.601562 83.03125 L 102.597656 83.03125 C 102.597656 82.984375 102.601562 82.933594 102.601562 82.882812 C 102.601562 76.617188 96.785156 70.089844 90.511719 70.089844 L 74.980469 70.089844 C 70.589844 70.089844 67.757812 67.136719 67.757812 62.746094 C 67.757812 58.359375 70.589844 54.449219 74.980469 54.449219 L 91.683594 54.445312 C 92.90625 54.445312 92.804688 53.4375 92.804688 52.128906 C 92.804688 50.816406 92.90625 49.808594 91.683594 49.808594 Z M 74.976562 49.808594 "></path></g></svg>